# xmcd CD database file
#
# Track frame offsets:
#	150
#	21462
#	38875
#	58098
#	78771
#	97869
#	117700
#	132788
#	148380
#	166394
#	188318
#	202024
#	220528
#	244470
#
# Disc length: 3481 seconds
#
# Revision: 0
# Processed by: cddbd v1.5.2PL0 Copyright (c) Steve Scherf et al.
# Submitted via: CDex 1.70beta2
#
DISCID=c80d970e
DTITLE=Troy Cassar-Daley - Troy Cassar-Daley - Live - CD Two
DYEAR=2010
DGENRE=Country
TTITLE0=Born to Survive
TTITLE1=Everything's Going to be Alright
TTITLE2=Yesterday's Bed
TTITLE3=Bean Pickin Blues
TTITLE4=Biggest Disappointment
TTITLE5=This Town is Me
TTITLE6=Losin' My Blues Tonight
TTITLE7=Little Things
TTITLE8=Trains
TTITLE9=People Get Ready
TTITLE10=Country Boy (Lost in the City)
TTITLE11=This Day is Min
TTITLE12=Dream Out Loud
TTITLE13=Big, Big Love
EXTD=YEAR: 2010
EXTT0=
EXTT1=
EXTT2=
EXTT3=
EXTT4=
EXTT5=
EXTT6=
EXTT7=
EXTT8=
EXTT9=
EXTT10=
EXTT11=
EXTT12=
EXTT13=
PLAYORDER=
